<mxfile host="Electron" agent="Mozilla/5.0 (Windows NT 10.0; Win64; x64) AppleWebKit/537.36 (KHTML, like Gecko) draw.io/24.7.17 Chrome/128.0.6613.36 Electron/32.0.1 Safari/537.36" version="24.7.17">
  <diagram name="Page-1" id="npnWrJ6twqKGqn9431Ad">
    <mxGraphModel dx="1021" dy="1675" grid="1" gridSize="10" guides="1" tooltips="1" connect="1" arrows="1" fold="1" page="1" pageScale="1" pageWidth="827" pageHeight="1169" math="0" shadow="0">
      <root>
        <mxCell id="0" />
        <mxCell id="1" parent="0" />
        <mxCell id="Juml_67chEdjd9dVbam6-4" value="&lt;div&gt;&lt;br&gt;&lt;/div&gt;" style="text;html=1;align=center;verticalAlign=middle;resizable=0;points=[];autosize=1;strokeColor=none;fillColor=none;" parent="1" vertex="1">
          <mxGeometry x="25" y="48" width="20" height="30" as="geometry" />
        </mxCell>
        <mxCell id="Juml_67chEdjd9dVbam6-5" value="" style="ellipse;whiteSpace=wrap;html=1;aspect=fixed;fillColor=#000000;" parent="1" vertex="1">
          <mxGeometry x="490" y="-160" width="20" height="20" as="geometry" />
        </mxCell>
        <mxCell id="Juml_67chEdjd9dVbam6-6" value="Planification des tâches en cuisine" style="rounded=1;whiteSpace=wrap;html=1;fillColor=#A9C4EB;" parent="1" vertex="1">
          <mxGeometry x="391" y="-90" width="220" height="20" as="geometry" />
        </mxCell>
        <mxCell id="Juml_67chEdjd9dVbam6-8" value="&lt;span style=&quot;text-wrap: nowrap;&quot;&gt;Assignation des tâches aux chefs de partie&lt;/span&gt;" style="rounded=1;whiteSpace=wrap;html=1;fillColor=#A9C4EB;" parent="1" vertex="1">
          <mxGeometry x="381" y="-40" width="240" height="20" as="geometry" />
        </mxCell>
        <mxCell id="Juml_67chEdjd9dVbam6-10" value="&lt;span style=&quot;text-wrap: nowrap;&quot;&gt;Les commandes sont-elles en cours de traitement?&lt;/span&gt;" style="rounded=1;whiteSpace=wrap;html=1;fillColor=#A9C4EB;" parent="1" vertex="1">
          <mxGeometry x="370" y="30" width="280" height="40" as="geometry" />
        </mxCell>
        <mxCell id="Juml_67chEdjd9dVbam6-11" value="" style="rhombus;whiteSpace=wrap;html=1;fillColor=#FFFFFF;" parent="1" vertex="1">
          <mxGeometry x="491" y="120" width="20" height="30" as="geometry" />
        </mxCell>
        <mxCell id="Juml_67chEdjd9dVbam6-12" value="" style="endArrow=classic;html=1;rounded=0;entryX=0.5;entryY=0;entryDx=0;entryDy=0;" parent="1" target="Juml_67chEdjd9dVbam6-6" edge="1">
          <mxGeometry width="50" height="50" relative="1" as="geometry">
            <mxPoint x="500" y="-140" as="sourcePoint" />
            <mxPoint x="550" y="-190" as="targetPoint" />
          </mxGeometry>
        </mxCell>
        <mxCell id="Juml_67chEdjd9dVbam6-13" value="" style="endArrow=classic;html=1;rounded=0;" parent="1" target="Juml_67chEdjd9dVbam6-8" edge="1">
          <mxGeometry width="50" height="50" relative="1" as="geometry">
            <mxPoint x="500" y="-70" as="sourcePoint" />
            <mxPoint x="550" y="-120" as="targetPoint" />
          </mxGeometry>
        </mxCell>
        <mxCell id="Juml_67chEdjd9dVbam6-14" value="" style="endArrow=classic;html=1;rounded=0;entryX=0.464;entryY=0;entryDx=0;entryDy=0;entryPerimeter=0;" parent="1" target="Juml_67chEdjd9dVbam6-10" edge="1">
          <mxGeometry width="50" height="50" relative="1" as="geometry">
            <mxPoint x="500" y="-20" as="sourcePoint" />
            <mxPoint x="550" y="-70" as="targetPoint" />
          </mxGeometry>
        </mxCell>
        <mxCell id="Juml_67chEdjd9dVbam6-15" value="" style="endArrow=classic;html=1;rounded=0;entryX=0.5;entryY=0;entryDx=0;entryDy=0;" parent="1" target="Juml_67chEdjd9dVbam6-11" edge="1">
          <mxGeometry width="50" height="50" relative="1" as="geometry">
            <mxPoint x="500" y="70" as="sourcePoint" />
            <mxPoint x="550" y="20" as="targetPoint" />
          </mxGeometry>
        </mxCell>
        <mxCell id="Juml_67chEdjd9dVbam6-16" value="" style="endArrow=none;html=1;rounded=0;exitX=1;exitY=0.5;exitDx=0;exitDy=0;" parent="1" source="Juml_67chEdjd9dVbam6-11" edge="1">
          <mxGeometry width="50" height="50" relative="1" as="geometry">
            <mxPoint x="510" y="140" as="sourcePoint" />
            <mxPoint x="620" y="135" as="targetPoint" />
          </mxGeometry>
        </mxCell>
        <mxCell id="Juml_67chEdjd9dVbam6-17" value="" style="endArrow=none;html=1;rounded=0;entryX=0;entryY=0.5;entryDx=0;entryDy=0;" parent="1" target="Juml_67chEdjd9dVbam6-11" edge="1">
          <mxGeometry width="50" height="50" relative="1" as="geometry">
            <mxPoint x="400" y="135" as="sourcePoint" />
            <mxPoint x="460" y="130" as="targetPoint" />
          </mxGeometry>
        </mxCell>
        <mxCell id="Juml_67chEdjd9dVbam6-18" value="" style="endArrow=classic;html=1;rounded=0;" parent="1" edge="1">
          <mxGeometry width="50" height="50" relative="1" as="geometry">
            <mxPoint x="400" y="130" as="sourcePoint" />
            <mxPoint x="400" y="180" as="targetPoint" />
          </mxGeometry>
        </mxCell>
        <mxCell id="Juml_67chEdjd9dVbam6-19" value="" style="endArrow=classic;html=1;rounded=0;" parent="1" edge="1">
          <mxGeometry width="50" height="50" relative="1" as="geometry">
            <mxPoint x="620" y="130" as="sourcePoint" />
            <mxPoint x="620" y="180" as="targetPoint" />
          </mxGeometry>
        </mxCell>
        <mxCell id="Juml_67chEdjd9dVbam6-20" value="Supervision des activités en cours" style="rounded=1;whiteSpace=wrap;html=1;fillColor=#A9C4EB;" parent="1" vertex="1">
          <mxGeometry x="350" y="180" width="100" height="50" as="geometry" />
        </mxCell>
        <mxCell id="Juml_67chEdjd9dVbam6-21" value="Réorganisation des tâches pour respecter les délais" style="rounded=1;whiteSpace=wrap;html=1;fillColor=#A9C4EB;" parent="1" vertex="1">
          <mxGeometry x="560" y="180" width="120" height="50" as="geometry" />
        </mxCell>
        <mxCell id="Juml_67chEdjd9dVbam6-22" value="" style="endArrow=classic;html=1;rounded=0;" parent="1" edge="1">
          <mxGeometry width="50" height="50" relative="1" as="geometry">
            <mxPoint x="620" y="230" as="sourcePoint" />
            <mxPoint x="620" y="260" as="targetPoint" />
          </mxGeometry>
        </mxCell>
        <mxCell id="Juml_67chEdjd9dVbam6-23" value="" style="rhombus;whiteSpace=wrap;html=1;fillColor=#FFFFFF;" parent="1" vertex="1">
          <mxGeometry x="610" y="360" width="20" height="30" as="geometry" />
        </mxCell>
        <mxCell id="Juml_67chEdjd9dVbam6-24" value="Oui" style="text;html=1;align=center;verticalAlign=middle;resizable=0;points=[];autosize=1;strokeColor=none;fillColor=none;" parent="1" vertex="1">
          <mxGeometry x="360" y="138" width="40" height="30" as="geometry" />
        </mxCell>
        <mxCell id="Juml_67chEdjd9dVbam6-25" value="Non" style="text;html=1;align=center;verticalAlign=middle;resizable=0;points=[];autosize=1;strokeColor=none;fillColor=none;" parent="1" vertex="1">
          <mxGeometry x="620" y="138" width="50" height="30" as="geometry" />
        </mxCell>
        <mxCell id="Juml_67chEdjd9dVbam6-26" value="" style="endArrow=none;html=1;rounded=0;exitX=1;exitY=0.5;exitDx=0;exitDy=0;" parent="1" source="Juml_67chEdjd9dVbam6-23" edge="1">
          <mxGeometry width="50" height="50" relative="1" as="geometry">
            <mxPoint x="640" y="270" as="sourcePoint" />
            <mxPoint x="690" y="375" as="targetPoint" />
          </mxGeometry>
        </mxCell>
        <mxCell id="Juml_67chEdjd9dVbam6-27" value="" style="endArrow=none;html=1;rounded=0;entryX=0;entryY=0.5;entryDx=0;entryDy=0;" parent="1" target="Juml_67chEdjd9dVbam6-23" edge="1">
          <mxGeometry width="50" height="50" relative="1" as="geometry">
            <mxPoint x="550" y="375" as="sourcePoint" />
            <mxPoint x="560" y="260" as="targetPoint" />
          </mxGeometry>
        </mxCell>
        <mxCell id="Juml_67chEdjd9dVbam6-28" value="" style="endArrow=classic;html=1;rounded=0;" parent="1" edge="1">
          <mxGeometry width="50" height="50" relative="1" as="geometry">
            <mxPoint x="690" y="370" as="sourcePoint" />
            <mxPoint x="690" y="420" as="targetPoint" />
          </mxGeometry>
        </mxCell>
        <mxCell id="Juml_67chEdjd9dVbam6-29" value="" style="endArrow=classic;html=1;rounded=0;" parent="1" edge="1">
          <mxGeometry width="50" height="50" relative="1" as="geometry">
            <mxPoint x="550" y="370" as="sourcePoint" />
            <mxPoint x="550" y="420" as="targetPoint" />
          </mxGeometry>
        </mxCell>
        <mxCell id="Juml_67chEdjd9dVbam6-31" value="&lt;span style=&quot;text-wrap: nowrap;&quot;&gt;Les plats sont-ils prêts pour le service ?&lt;/span&gt;" style="rounded=1;whiteSpace=wrap;html=1;fillColor=#A9C4EB;" parent="1" vertex="1">
          <mxGeometry x="510" y="260" width="220" height="50" as="geometry" />
        </mxCell>
        <mxCell id="Juml_67chEdjd9dVbam6-32" value="" style="endArrow=classic;html=1;rounded=0;entryX=0.5;entryY=0;entryDx=0;entryDy=0;" parent="1" target="Juml_67chEdjd9dVbam6-23" edge="1">
          <mxGeometry width="50" height="50" relative="1" as="geometry">
            <mxPoint x="620" y="310" as="sourcePoint" />
            <mxPoint x="670" y="260" as="targetPoint" />
          </mxGeometry>
        </mxCell>
        <mxCell id="Juml_67chEdjd9dVbam6-33" value="Oui" style="text;html=1;align=center;verticalAlign=middle;resizable=0;points=[];autosize=1;strokeColor=none;fillColor=none;" parent="1" vertex="1">
          <mxGeometry x="510" y="378" width="40" height="30" as="geometry" />
        </mxCell>
        <mxCell id="Juml_67chEdjd9dVbam6-34" value="Non" style="text;html=1;align=center;verticalAlign=middle;resizable=0;points=[];autosize=1;strokeColor=none;fillColor=none;" parent="1" vertex="1">
          <mxGeometry x="680" y="378" width="50" height="30" as="geometry" />
        </mxCell>
        <mxCell id="Juml_67chEdjd9dVbam6-35" value="Coordination avec le service en salle" style="rounded=1;whiteSpace=wrap;html=1;fillColor=#A9C4EB;" parent="1" vertex="1">
          <mxGeometry x="491" y="420" width="109" height="50" as="geometry" />
        </mxCell>
        <mxCell id="Juml_67chEdjd9dVbam6-36" value="Assistance pour accélérer la préparation" style="rounded=1;whiteSpace=wrap;html=1;fillColor=#A9C4EB;" parent="1" vertex="1">
          <mxGeometry x="645" y="420" width="95" height="50" as="geometry" />
        </mxCell>
        <mxCell id="Juml_67chEdjd9dVbam6-37" value="" style="endArrow=classic;html=1;rounded=0;" parent="1" edge="1">
          <mxGeometry width="50" height="50" relative="1" as="geometry">
            <mxPoint x="550" y="470" as="sourcePoint" />
            <mxPoint x="550" y="500" as="targetPoint" />
          </mxGeometry>
        </mxCell>
        <mxCell id="Juml_67chEdjd9dVbam6-38" value="" style="ellipse;html=1;shape=endState;fillColor=#000000;strokeColor=#ff0000;" parent="1" vertex="1">
          <mxGeometry x="540" y="500" width="20" height="20" as="geometry" />
        </mxCell>
      </root>
    </mxGraphModel>
  </diagram>
</mxfile>
